<svg width="512" height="512" viewBox="0 0 512 512" fill="none" xmlns="http://www.w3.org/2000/svg">
<g clip-path="url(#clip0_1_2)">
<path d="M98.5563 303.6L29.7563 269.2V253.2L98.5563 218.8V232.72L48.9563 257.04C46.9296 258 45.0096 258.853 43.1963 259.6C41.4896 260.24 40.2096 260.667 39.3563 260.88C40.3163 261.093 41.7029 261.573 43.5163 262.32C45.3296 262.96 47.1429 263.76 48.9563 264.72L98.5563 289.2V303.6ZM155.294 315.6C144.094 315.6 135.294 312.453 128.894 306.16C122.494 299.867 119.294 291.28 119.294 280.4H133.694C133.694 287.547 135.56 293.093 139.294 297.04C143.134 300.88 148.467 302.8 155.294 302.8C162.12 302.8 167.4 300.88 171.134 297.04C174.974 293.093 176.894 287.547 176.894 280.4V197.2H191.294V280.4C191.294 291.28 188.04 299.867 181.534 306.16C175.134 312.453 166.387 315.6 155.294 315.6ZM248.831 314V210.32H216.831V197.2H295.231V210.32H263.231V314H248.831ZM315.969 331.6L372.769 181.2H387.969L331.169 331.6H315.969ZM413.506 303.6V289.68L463.106 265.36C465.133 264.4 467 263.6 468.706 262.96C470.52 262.213 471.853 261.733 472.706 261.52C471.746 261.307 470.36 260.827 468.546 260.08C466.733 259.333 464.92 258.533 463.106 257.68L413.506 233.2V218.8L482.306 253.2V269.2L413.506 303.6Z" fill="white"/>
</g>
<defs>
<clipPath id="clip0_1_2">
<rect width="512" height="512" fill="white"/>
</clipPath>
</defs>
</svg>
