<svg version="1.0" preserveAspectRatio="xMidYMid meet" viewBox="111 102.74999753400002 143.25 154.499996292" zoomAndPan="magnify" xmlns:xlink="http://www.w3.org/1999/xlink" xmlns="http://www.w3.org/2000/svg" style="max-height: 500px" width="143.25" height="154.499996292"><defs><g/></defs><g fill-opacity="1" fill="#000000" data-darkreader-inline-fill="" style="--darkreader-inline-fill: #000000;"><g transform="translate(155.296628, 210.774581)"><g><path d="M 49.898438 -77.78125 L 77.636719 -77.78125 L 77.636719 -97.226562 L 0.714844 -97.226562 L 0.714844 -77.78125 L 28.453125 -77.78125 L 28.453125 0 L 49.898438 0 Z M 49.898438 -77.78125"/></g></g></g><g fill-opacity="1" fill="#000000" data-darkreader-inline-fill="" style="--darkreader-inline-fill: #000000;"><g transform="translate(126.4449, 242.744859)"><g><path d="M 16.585938 -19.160156 C 10.292969 -19.160156 5.863281 -21.445312 3.289062 -26.308594 L 2.859375 -26.308594 L 2.859375 -0.144531 C 7.007812 0.859375 11.582031 1.429688 16.585938 1.429688 C 39.890625 1.429688 53.902344 -8.722656 53.902344 -36.460938 L 53.902344 -97.226562 L 32.457031 -97.226562 L 32.457031 -38.175781 C 32.457031 -28.023438 31.882812 -19.160156 16.585938 -19.160156 Z M 16.585938 -19.160156"/></g></g></g></svg>